<svg version="1.1" viewBox="0 0 100 100" xmlns="http://www.w3.org/2000/svg">
 <defs>
  <style>.cls-1 {
        fill: #000;
      }

      .cls-1, .cls-2 {
        stroke-width: 0px;
      }

      .cls-2 {
        fill: #fff;
      }</style>
 </defs>
 <g transform="matrix(1.0187 0 0 .97399 -.74812 -1.2942)">
  <path class="cls-2" d="m49.598 6.4457c-2.3716 0.13274-4.1623 1.7845-6.2186 2.6794-13.471 7.1711-26.99 14.276-40.432 21.489-2.6341 1.5634-2.6948 5.3988-0.17897 7.087 1.8469 1.4051 4.6237 1.1805 6.4688-0.11318 1.2943-1.1184 1.0936 0.12208 1.0545 1.1076 0.0225 15.694-0.04496 31.392 0.03364 47.083 0.18744 2.461 2.914 4.2901 5.5785 3.9947 8.2424-0.03016 16.492 0.05996 24.73-0.04442 3.1936-0.26824 5.2825-3.724 3.8207-6.2972-0.94959-1.9502-3.4111-2.837-5.6601-2.5711h-18.603v-49.068c9.87-5.2381 19.74-10.476 29.61-15.714 9.8711 5.2381 19.742 10.476 29.613 15.714v49.068c-6.2583 0.04451-12.526-0.08961-18.778 0.06811-3.0789 0.49589-4.9582 3.887-3.4366 6.3752 0.95595 1.903 3.4006 2.707 5.5944 2.4695 7.4069-0.03022 14.821 0.06007 22.223-0.04443 2.7411-0.25036 4.6381-2.77 4.2769-5.17v-47.531c1.6818 0.9776 3.628 2.0781 5.7146 1.4953 3.0195-0.64092 4.6504-4.0856 3.0329-6.4818-1.1856-1.8831-3.6973-2.4835-5.5647-3.6719-13.582-7.1813-27.113-14.447-40.726-21.576-0.67959-0.25281-1.4173-0.38459-2.1534-0.3477z" style="fill:#4d4d4d"/>
  <path class="cls-2" d="m50.611 27.815c-1.5662 0.07114-2.651 1.3754-3.8274 2.2526-7.6044 6.4271-12.032 16.309-12.045 26.239-0.10512 8.9556 3.3209 17.947 9.5937 24.376 0.9983 1.0372 2.0668 2.006 3.1869 2.9101 0.02903 3.2812-0.05856 6.5681 0.04469 9.8456 0.2553 1.9296 2.4638 3.2779 4.2834 2.5372 1.5038-0.50419 2.3326-2.1629 2.1406-3.6918 0.01172-2.8993-0.02345-5.8216 0.01758-8.7066 7.5553-6.0375 12.205-15.421 12.709-25.053 0.22081-0.40623 0.01713-1.2313 0.07338-1.7998 0.08056-9.5367-3.867-19.077-10.862-25.595-1.2497-1.1088-2.4891-2.2976-3.97-3.0838-0.4209-0.1795-0.88886-0.25536-1.3448-0.23008zm3.459 10.869c3.0702 3.7882 5.1014 8.3966 5.8789 13.207-1.3832-0.72442-3.1408-0.1861-4.0608 1.031-0.62884 0.65635-1.2577 1.3127-1.8865 1.969v-16.289l0.06402 0.07682zm-6.5371 16.207c-1.0068-0.9446-1.8205-2.1287-2.9742-2.8962-0.8845-0.52173-2.0337-0.55143-2.9497-0.09408 0.78148-4.8351 2.8258-9.4691 5.9238-13.268v16.258zm12.754 3.1699c-0.30377 5.9458-2.5091 11.791-6.2852 16.402v-10.145c2.0996-2.1914 4.1992-4.3828 6.2988-6.5742-0.0046 0.10547-0.0091 0.21094-0.01367 0.31641zm-12.742 6.2695v10.115c-3.8283-4.6817-6.0407-10.636-6.2832-16.674 2.0944 2.1862 4.1888 4.3724 6.2832 6.5586z" style="fill:#4d4d4d"/>
 </g>
</svg>
